<svg  xmlns="http://www.w3.org/2000/svg" viewBox="0 0 140 69" xml:space="preserve">
		<path  d="M88.1,14.9c-0.6-1.9,0.9-3.3,2.6-3.8C93.4,12.3,90.2,16.6,88.1,14.9z"></path>
		<path  d="M125.9,58.8c-1-0.8-3.9-3.1-3.9-4.5c0-1,1.4-3.2,2.1-4.4c1.3-2.5,2.5-4.6,3.6-6.9c-0.3-0.2-0.9,0-0.9,0.4
			c-1.6,0.2-2.7,0.7-4.4,1.2c-2.3,5.7-4.6,12.1-5.3,17.4c-1.5-0.5-2.6-2.9-4.4-3.8c0.3-2.8,3.9-8.9,6-12.6c-1.7,0.5-2.8,0.8-4.5,1.1
			c-2.5,4.2-4.6,10-5.9,14.5c-0.2,1.7-1.2,4.7-1.5,6.7c-2-0.6-4.4,1.4-6.3,0.4c-1.1-0.5-1.9-1.7-3-2.4c-2.5-1.4-6.9-2.5-9.6-2.6
			c-4-0.9-8.6-0.6-12.7,0.7c-0.1,0.1-0.5,0.2-0.3,0.3c-2.3,0.4-4.3,1.6-6,2.3c-0.2-0.2-0.3-0.5-0.3-0.9c5.5-3.9,13.5-5.6,20.9-6.3
			c0.1,0,0.1,0.2,0.1,0.3c5.5-0.5,10.6-0.2,14.5,2.5c1-1.5,1.9-3.3,2.5-5.2c-1.3,1.2-3.6,1.3-5.2,1.1c-5-5.7,3-17.8,9.7-13.4
			c0.4-0.5,0.4-1.2,0.7-1.8c3.3-1.2,6.9-1.4,9.4-1.9c0.9-1.6,2.2-3.1,2.9-4.6c0.8,0.1,1.7-0.3,2.2-0.4c1.2,1.3-0.7,2.9-1.4,3.9
			c2.4,0.3,5.5-0.5,6.1-4.2c-0.2-0.2-0.3-0.6-0.2-0.9c2.2-0.3,5-1.8,6.6-2.6c0.2,0-0.1,0.4,0.3,0.3c-1.9,4.3-4.2,8.3-6.7,11.9
			c1.8-1.3,3.5-2.5,6.2-2.8c5,3.4-3.7,13.2-0.7,18.9c0.2,0.2,0.5,0.3,0.5,0.7c-2.4-1.2-4.7-2.2-6.3-4.3c0.1-2.6,4.1-5.7,2.9-8.6
			c-0.3-0.8-1.4-0.4-2.1,0.3 M120.7,49.4C120.9,48.5,120.5,49.8,120.7,49.4L120.7,49.4z M107.6,47.7c-1.5,1.3-3.8,2.7-3.6,5.6
			C105.8,52.7,108.9,49.5,107.6,47.7z"></path>
		<path  d="M122.2,24.9c2,3.1,6.8-0.5,8-2.9c0.2,0,0.4,0,0.7,0c0.3,4-3.5,6.5-6.1,7.7c-1.5,1-4.2,1.9-6.1,1
			c-6.3-4.6,1.3-15,7.9-15.2c2.4-0.1,4.2,0.4,4.7,3c0,0.2-0.2,0.3-0.1,0.6C128.3,20.9,124.6,22.6,122.2,24.9z M121.2,22.5
			c0.2-0.2,0-0.1-0.1-0.3c1.6-1.4,3.8-2.1,5.1-3.8C123.3,18.7,121.4,20.1,121.2,22.5z"></path>
		<path  d="M76.3,36.5c-0.9-1.6,3.6-2.9,4.6-3.2c6.8-2.4,16.7-3.6,24.4-0.9c2.4,0.8,3-1.7,4.3-4.1
			c-1.1,0.8-3.1,1.4-4.3,1.1c-3.8-3.1-0.2-9.5,2-12.2c2-0.8,6.4-5.3,9-2.2c0.9-2.7,4.4-2.3,7.2-2.7c-6.5,5.2-10,13.9-11.6,23.7
			c-1.8,0.5-4.6,1.3-5.8,2.6C98.7,32.2,83.8,32,76.3,36.5z M107.5,24.4c2.1-1,3.4-3.3,4.2-5.4C108.9,19.2,107.8,22,107.5,24.4z"></path>
		<path  d="M82,22.7c-6.4-4.3-7.7,7.1-9.5,12.1C71.9,33.1,69.1,30,69,28c0-0.7,1.1-1.8,1.4-2.3c1.3-2.3,1.8-4.9,0.9-7.7
			c1.7-1.6,7.1-7.7,6.8-1.4c1.2-0.7,3.1-1.8,4.6-2.5c1.5,0.8,1.5,3.2,2.1,4.6C83.8,20.1,82.8,21.6,82,22.7z"></path>
		<path  d="M54.4,63.7c-0.1,0-0.2,0-0.2,0.1c-1.2-0.1-1.4-2.3-2.1-2.4c-0.6-1.3-1.1-2.2-1.7-3.3
			c1.6-4.4,3.8-7.7,5.6-11.7c-1.9,0-3.1,1.5-5,1.7c0.2-0.2,0-0.4-0.2-0.2c-0.6-1.7,1-2.9,0.9-4.7c1.3-0.4,3.4-0.5,6-0.7
			c0.5-1.3,1.2-2.1,1.5-3.5c1.3-0.4,2.5-1,3.9-0.8c-0.2,1.4-1.5,2.5-2.2,3.8c2,0,4.6-1.4,7-0.7c-0.4,1,0.8,3,0.5,3.5
			c1.8-0.8,3.6-2.5,5.8-3.2c0.4,1.3,2.2,4.1,1.9,5.7c-0.3,1.7-3.5,2.6-4.4,3.9c0-0.6-0.5-1.3-1-1.6c-5.3,1.1-5.5,9.1-6.5,14.8
			c-2-1.2-3.5-3.8-5.3-5.6c1-3.3,3.5-7.1,2.6-11.2c0.4-0.3,0.2-0.9,0.6-0.9c-0.2-0.2-0.1-0.1-0.1-0.5c0.9-0.5,1.9-1.1,2.9-1.9
			c-1.8,0.2-3.9,0.6-5.6,1.3c-1.6,3.6-2.5,8.1-4,11.8 M67.7,42.5C67.9,42.1,67.3,42,67.7,42.5L67.7,42.5z"></path>
		<path  d="M41.1,16c0.3-0.2,0.4,0,0.7-0.2c0.4,0.7,0.6,1.6,0.7,2.5c2.1-1.2,3.6-4.1,6.3-3.9c0.8,2.3-1.2,5-0.9,7.5
			c2.6-2.9,5.1-6.9,8.9-8.4c0.2,0.1,0.2,0.3,0.4,0.4c-1.7,3.8-3,7.9-2.2,12.7c2.4-4.6,7-11,2.6-15.9c1.1-1.3,2.4-2.2,3.8-3.1
			c0.7-0.4,5-4.6,5.6-2.2c0.7,2.7-2.2,6.7-3,9.3c-0.4,1.3-0.6,2.4-0.9,3.6c1.3-0.9,2.9-2.2,4.5-2.7c5.5,0.8,2.7,10.3,0.1,13
			c-1.5,2.4-4.6,3.9-7.6,3.4c-1.1-1.1-2.9-1.9-2.7-3.7c-0.6,0.5-0.9,0.8-1.5,1.3c0.2,2.6,2.8,3.9,2.3,6.6c-6.2-0.7-9.7-6.7-6.9-13.7
			c-1.7,1.6-2.8,4-4.7,5.1c-1.1-1.1-1.3-3.1-1.8-5.1c-1.7,3.2-3.9,8.3-4.8,11.4c-1.3,4.4-2.9-2.3-5.2-2.8c1.6-2.7,5.6-6.2,3.4-10.1
			c-0.1-0.2-0.2,0.1-0.5-0.1C37.6,17.9,39.8,17.8,41.1,16z M66.9,20.7c-2.2,0.4-4.9,2.3-4.6,5.5C64.3,25.7,67,22.7,66.9,20.7z"></path>
		<path  d="M33.4,32.5C33.4,32.6,33.3,32.6,33.4,32.5c-0.2,0.4-0.6,0.5-0.9,0.7c-1.2,0-2.1-1.2-3.1-1.8
			c-2.3,2.8-7.3,4.3-9.2,0.5c-1.4-7.4,3.3-11.6,8.1-14.6c1.9-0.6,4.6-1.3,5.9,0.3c0.5-0.2,0.4-0.9,0.7-1.2c1.5,0.4,3.5-1.2,4.6-0.3
			C35.9,19.8,33.4,27,33.4,32.5z M29,22.1c0,0.4-0.2,0-0.2-0.2c-1.7,0.7-3.5,3.4-3.4,6C27.5,27.4,30.3,24.8,29,22.1z"></path>
		<path  d="M102,15.6c1.5-2.8,2.8-5.8,3.7-8.8c2.8-1.2,6.2-2,9.3-2.6c0.3,0.1,0.2,0.4,0.6,0.4c-0.1,0.2-0.2,0.4-0.1,0.7
			c-4.1,1.8-6.6,7.4-9.2,11.4c-2,3.2-4.9,7-4.4,10.9c0.2,0.3,0.5,0.1,0.8,0.5c0,0.2-0.1,0.4-0.1,0.7c-1.3,0.9-2.5,1.1-4.2,1.7
			c-0.8-0.4-1-1.2-1-2.3c-1.6,1.6-4.1,3.7-7.1,2.6c-4.4-6,2.4-15.5,8.7-16.7C100.1,14.2,101.3,14.8,102,15.6z M97.7,19.3
			c-2.4,0.8-4.2,3.5-4.7,6C95.2,24,97.2,22,97.7,19.3z"></path>
		<path  d="M94,57.1c-0.1-2.6,2.1-6.2,1.5-9.3c-4.6,1.2-2.8,12.1-9,8.8c1.3-3.1,2.4-7.1,1-10.6c1.9-1.3,3.5-2.8,5.2-4.2
			c0.3,0.1,0.4,0.3,0.7,0.4c0,0.9,0.2,1,0.2,1.8c2.2-3.1,8.2-2.3,7,2.6c-1.4,3.5-3.6,9.5-0.3,12.3C97.9,58.9,96.4,57.4,94,57.1z"></path>
		<path  d="M90.1,16.6c0.5-0.3,0.7,0,1.2,0.2c-2.4,4.5-4.5,9.7-7.1,14.5c-0.2-0.4-0.7,0.1-0.7-0.5
			c-0.8,0.2-1.9-0.1-2.6-0.8c-0.2,0-0.2,0.3-0.5,0.2c1.3-4.6,4.1-8.8,6.1-13.2"></path>
		<path  d="M87.1,48.4c-2.4,1.9-6.3,3.1-8.7,5.7c3.2,2.6,5.5-2.6,7.9-3.8C89.2,59,73.6,64.2,72.6,55
			C71.8,48,83.6,41.7,87.1,48.4z M77.4,51.3c1-1.2,2.8-1.6,3.8-2.8C79.3,47.9,77.3,49,77.4,51.3z"></path>
		<path  d="M53.4,38.8c0.2,2.5-3.1,4.4-5,5.9c-4.2-4.4-12.9-3.3-14.7,2.5c1.5,0.5,3.6-0.5,4.7-0.9
			c4.1-0.6,11.7-1.5,12.7,3.8c-0.2,5-4.8,8.3-7.7,11.9c-1.4,0.6-3.1,2.7-5.8,2.1c-3.6-0.8-5.6-6-8.6-7.9c-3.5-2.2-7.2-2.7-12.1-1.3
			c-3.6,1.3-6.9,3.3-9,6.6c-1.5-2-0.2-2.3,3-5.2c7.1-6.6,20.8-4.1,27.8,0.8c1-0.4,2.5-1.2,3.3-1.9c3.8-8-8-6.2-11.4-3.4
			c-1.5-1.3-2.9-2.7-3.7-4.7c5.9-6.1,18.4-16.2,26.3-8.3"></path>
		<path  d="M27.2,15.6c0.5-1.8,1.2-4.6-1.4-5.7C18,13.1,12.5,20.3,10.8,28.6c-0.8,3.9,1.4,7,5.1,7.4
			c3.1,0.3,7-0.8,10.5-0.9c3.4-0.1,8.2,1.6,9.2,3.4c-0.8,1.1-1.6-0.5-3-0.7C24,36.7,17.8,44.2,11,46.4C3,43-2.2,31.4,1.8,22.2
			c1.7-5.9,6.5-9.8,11.4-13.6c3.9-3,8.4-6.3,13.2-7.7c2.6-0.7,5.5,0.2,6.7,1.6c0.4,0.8,1.5,1.9,1.7,2.8c1.5,1.9,1.7,3.6,0.2,4.8
			C33.2,11.7,30,14.3,27.2,15.6z"></path>
</svg>